<?xml version="1.0" encoding="utf-8"?>
<!-- Generator: Adobe Illustrator 27.7.0, SVG Export Plug-In . SVG Version: 6.00 Build 0)  -->
<svg version="1.1" id="Calque_1" xmlns="http://www.w3.org/2000/svg" xmlns:xlink="http://www.w3.org/1999/xlink" x="0px" y="0px"
	 viewBox="0 0 84.25 85.3" style="enable-background:new 0 0 84.25 85.3;" xml:space="preserve">
<style type="text/css">
	.st0{fill:#FFFFFF;}
</style>
<g>
	<path class="st0" d="M65.25,56.1c0.38-0.62,0.73-1.22,1.13-1.79c2.03-2.91,4.5-5.35,7.58-7.13c0.59-0.34,1.22-0.63,1.83-0.95
		c0.15-0.08,0.29-0.04,0.44-0.02c1.54,0.26,2.99,0.78,4.25,1.73c1.64,1.24,2.67,2.9,3.37,4.82c0.45,1.26,0.43,2.51,0.35,3.8
		c-0.09,1.55-0.34,3.07-0.64,4.58c-0.15,0.79-0.55,1.43-1.11,2.01c-1.07,1.11-2.33,2-3.57,2.9c-2.31,1.68-4.72,3.22-7.15,4.74
		c-1.48,0.92-2.95,1.86-4.44,2.76c-0.92,0.55-1.95,0.79-3,0.96c-0.97,0.15-1.93,0.18-2.86-0.17c-0.21-0.08-0.38-0.01-0.54,0.14
		c-0.44,0.42-0.72,0.95-0.96,1.5c-0.34,0.78-0.55,1.6-0.84,2.39c-0.64,1.73-1.28,3.46-2.43,4.93c-0.4,0.51-0.89,0.91-1.37,1.33
		c-0.11,0.1-0.22,0.2-0.27,0.35c-0.08,0.23-0.24,0.31-0.48,0.31c-2.87-0.01-5.74-0.01-8.61,0c-0.25,0-0.4-0.05-0.41-0.33
		c0-0.13-0.08-0.21-0.19-0.28c-3.28-2.22-6.37-4.69-9.48-7.13c-0.86-0.68-1.75-1.32-2.62-1.98c-0.31-0.23-0.65-0.35-1.02-0.37
		c-2.49-0.15-4.95-0.57-7.38-1.11c-3.3-0.73-6.56-1.57-9.77-2.64c-1.57-0.52-2.72-1.59-3.65-2.91c-0.94-1.34-1.63-2.8-2.2-4.33
		c-0.8-2.14-1.48-4.32-1.81-6.58C7.18,56,7.23,54.38,8.03,52.87c0.66-1.24,1.72-1.9,3.07-2.15c0.37-0.07,0.73-0.01,1.09,0.1
		c1.07,0.34,2.06,0.84,3.02,1.41c0.95,0.57,1.84,1.23,2.79,1.79c0.28,0.16,0.31,0.16,0.31-0.16c0-1.29,0.05-2.57-0.31-3.85
		c-0.42-1.49-0.53-3.06-0.7-4.6c-0.07-0.69-0.19-1.38-0.41-2.05c-0.24-0.72-0.3-1.48-0.37-2.23c-0.02-0.23-0.1-0.35-0.35-0.39
		c-1.77-0.27-3.53-0.6-5.31-0.87c-2.2-0.33-4.39-0.7-6.58-1.05c-1.35-0.21-2.7-0.42-4.04-0.62c-0.2-0.03-0.24-0.1-0.23-0.29
		c0.03-0.65,0.11-1.29,0.28-1.92c0.53-1.91,1.33-3.71,2.21-5.47c1.54-3.09,3.35-6.02,5.13-8.97c0.89-1.47,2.03-2.7,3.18-3.95
		c1.85-2.01,3.81-3.92,5.78-5.81c0.69-0.66,1.29-1.42,1.99-2.07c1.72-1.61,3.62-3.01,5.58-4.3c2.3-1.52,4.7-2.85,7.13-4.14
		c0.93-0.49,1.94-0.66,2.94-0.84c2.16-0.39,4.33-0.54,6.52-0.41c1.05,0.06,2.11,0.14,3.14,0.39c0.47,0.12,0.86,0.34,1.2,0.68
		c2.63,2.52,5.14,5.15,7.67,7.77c1.33,1.39,2.75,2.69,4.15,4c2.18,2.04,4.13,4.3,6.1,6.54c0.85,0.97,1.7,1.93,2.55,2.9
		c0.26,0.29,0.48,0.61,0.67,0.95c1.51,2.65,3.07,5.26,4.65,7.88c0.12,0.2,0.23,0.4,0.35,0.59c0.49,0.8,0.45,1.61-0.01,2.41
		c-0.51,0.9-1.25,1.61-2.1,2.18c-1.03,0.69-2.01,1.48-3.15,2c-0.17,0.08-0.17,0.21-0.14,0.35c0.05,0.29,0.09,0.59,0.19,0.87
		c0.41,1.22,0.41,2.47,0.36,3.73c-0.08,2.19-0.31,4.37-0.51,6.56c-0.14,1.51-0.33,3.01-0.53,4.51c-0.06,0.46-0.12,0.93-0.16,1.39
		C65.18,55.84,65.15,55.95,65.25,56.1z M49.72,84.71c1.07-0.02,2.12-0.1,3.18-0.3c1.08-0.21,2.05-0.56,2.78-1.43
		c0.5-0.6,0.96-1.22,1.29-1.93c0.32-0.69,0.62-1.38,0.91-2.08c0.4-0.95,0.62-1.95,0.99-2.91c0.39-1,0.91-1.9,1.75-2.59
		c0.11-0.09,0.17-0.2,0.19-0.35c0.31-1.96,0.62-3.92,0.95-5.87c0.27-1.59,0.57-3.18,0.85-4.76c0.31-1.71,0.73-3.39,1.61-4.91
		c0.03-0.05,0.08-0.12,0.01-0.15c-0.31-0.15-0.21-0.42-0.19-0.65c0.19-1.58,0.36-3.17,0.58-4.74c0.24-1.72,0.36-3.45,0.55-5.17
		c0.12-1.07,0.12-2.15,0.19-3.22c0.09-1.34,0.14-2.67-0.33-3.96c-0.04-0.1-0.05-0.21-0.07-0.32c-0.11-0.51-0.12-0.51-0.63-0.33
		c-0.01,0-0.02,0.01-0.03,0.01c-1.59,0.64-3.21,1.2-4.84,1.72c-0.82,0.26-1.64,0.5-2.51,0.49c-0.68-0.01-1.36-0.01-2.03,0.04
		c-1.89,0.12-3.77,0.38-5.63,0.69c-1.52,0.26-3.05,0.48-4.58,0.72c-1.37,0.21-2.74,0.4-4.11,0.56c-1.13,0.13-2.26,0.22-3.38,0.42
		c-0.86,0.16-1.71,0.31-2.57,0.32c-2.7,0.03-5.37-0.24-8.02-0.79c-2.17-0.45-4.32-1.04-6.46-1.61c-0.8-0.21-1.6-0.4-2.42-0.55
		c-0.21-0.04-0.25,0-0.23,0.22c0.03,0.46,0.08,0.91,0.18,1.36c0.14,0.68,0.4,1.33,0.49,2.03c0.26,2.02,0.41,4.06,0.95,6.04
		c0.28,1.04,0.2,2.13,0.09,3.18c-0.1,0.92,0.11,1.66,0.56,2.45c2.28,3.99,4.59,7.95,7.23,11.72c1.28,1.82,2.59,3.62,4.22,5.15
		c0.47,0.44,0.96,0.88,1.59,1.09c0.36,0.12,0.69,0.3,1,0.52c1.59,1.12,3.1,2.35,4.63,3.55c2.45,1.92,4.92,3.81,7.48,5.57
		c0.42,0.29,0.86,0.5,1.36,0.59C48.11,84.65,48.91,84.74,49.72,84.71z M56.48,40.24c0.57,0.02,1.14,0.04,1.69-0.12
		c2.25-0.66,4.45-1.45,6.62-2.33c0.27-0.11,0.09-0.21,0-0.29c-0.8-0.79-1.47-1.68-1.93-2.71c-0.06-0.14-0.15-0.26-0.23-0.39
		c-1.36-2.13-2.69-4.29-4.14-6.36c-0.79-1.13-1.57-2.26-2.49-3.29c-1.01-1.13-2.06-2.23-3.12-3.3c-2.45-2.46-4.98-4.84-7.78-6.9
		c-0.97-0.71-1.96-1.37-3.1-1.77c-2.48-0.87-4.95-1.76-7.5-2.42c-0.61-0.16-1.22-0.31-1.86-0.02c-1.75,0.79-3.42,1.7-4.98,2.83
		c-2.09,1.52-3.91,3.3-5.29,5.51c-0.65,1.04-1.27,2.09-1.94,3.12c-1.12,1.7-1.97,3.53-2.49,5.5c-0.18,0.7-0.45,1.35-0.8,1.98
		c-0.55,0.98-0.72,2.03-0.4,3.14c0.17,0.56,0.32,1.13,0.4,1.71c0.13,0.93,0.34,1.84,0.32,2.79c-0.02,0.87-0.07,1.73-0.1,2.6
		c-0.02,0.42,0.01,0.45,0.42,0.54c0.63,0.14,1.27,0.24,1.9,0.41c2,0.54,4,1.06,6.02,1.54c1.77,0.42,3.57,0.7,5.39,0.88
		c1.68,0.17,3.36,0.16,5.04-0.01c0.55-0.06,1.09-0.25,1.64-0.3c2.08-0.19,4.16-0.46,6.23-0.76c2.56-0.38,5.11-0.85,7.68-1.19
		C53.28,40.42,54.87,40.29,56.48,40.24z M40.06,1.01c-1.95-0.04-3.88,0.08-5.8,0.44c-0.89,0.17-1.78,0.32-2.6,0.76
		c-2.37,1.25-4.7,2.57-6.94,4.04c-1.84,1.21-3.63,2.49-5.25,4c-0.74,0.69-1.38,1.47-2.09,2.18c-2.01,1.98-4.02,3.97-5.97,6
		c-0.89,0.93-1.82,1.83-2.48,2.94c-0.83,1.39-1.7,2.74-2.53,4.13c-1.57,2.65-3.07,5.34-4.27,8.18c-0.45,1.07-0.84,2.17-1.06,3.32
		c-0.05,0.24-0.01,0.35,0.25,0.39c0.73,0.11,1.45,0.24,2.18,0.35c2.23,0.35,4.47,0.68,6.7,1.04c1.93,0.31,3.85,0.65,5.78,0.97
		c0.44,0.07,0.44,0.06,0.45-0.37c0-0.11,0.01-0.22,0.02-0.33c0.14-2,0-3.98-0.5-5.93c-0.14-0.54-0.31-1.07-0.32-1.64
		c-0.01-1.13,0.34-2.15,0.92-3.11c0.15-0.25,0.27-0.51,0.33-0.8c0.31-1.36,0.81-2.64,1.4-3.9c0.98-2.07,2.39-3.88,3.51-5.87
		c0.13-0.22,0.28-0.43,0.44-0.64c1.69-2.29,3.77-4.16,6.17-5.68c1.33-0.84,2.71-1.61,4.19-2.15c0.4-0.15,0.8-0.19,1.23-0.12
		c1.31,0.24,2.57,0.62,3.83,1.03c1.65,0.54,3.29,1.08,4.91,1.69c1.4,0.52,2.6,1.39,3.78,2.28c1.47,1.11,2.86,2.33,4.22,3.58
		c2.05,1.88,3.99,3.88,5.86,5.94c1.92,2.11,3.46,4.5,5,6.89c0.76,1.18,1.57,2.33,2.24,3.57c0.55,1.03,1.2,1.97,2.03,2.78
		c0.22,0.22,0.39,0.25,0.64,0.08c0.83-0.57,1.7-1.09,2.48-1.72c0.44-0.35,0.87-0.71,1.22-1.14c0.73-0.89,0.75-1.34,0.17-2.32
		c-1.11-1.85-2.2-3.72-3.31-5.57c-0.89-1.49-1.65-3.07-2.9-4.34c-0.41-0.42-0.78-0.88-1.17-1.32c-2.07-2.37-4.16-4.7-6.39-6.93
		c-0.76-0.76-1.65-1.39-2.4-2.16c-3.11-3.19-6.19-6.42-9.36-9.55c-0.38-0.38-0.81-0.61-1.34-0.72C42.23,1.09,41.15,1.04,40.06,1.01z
		 M63.2,73.63c0.24,0.02,0.51-0.02,0.79-0.06c1.01-0.13,2-0.35,2.89-0.89c3.73-2.32,7.49-4.59,11.08-7.14
		c1.4-0.99,2.77-2.02,3.97-3.26c0.35-0.36,0.6-0.76,0.69-1.26c0.26-1.42,0.52-2.84,0.61-4.29c0.04-0.62,0.04-1.23,0.07-1.85
		c0.03-0.77-0.28-1.46-0.53-2.16c-1.03-2.89-3.03-4.68-6.01-5.39c-0.47-0.11-0.91-0.07-1.34,0.17c-0.56,0.32-1.14,0.62-1.68,0.97
		c-3.02,1.92-5.37,4.49-7.24,7.51c-0.18,0.3-0.37,0.59-0.59,0.86c-0.78,0.93-1.28,2.01-1.68,3.14c-0.43,1.24-0.61,2.53-0.84,3.81
		c-0.3,1.67-0.6,3.33-0.89,5c-0.25,1.44-0.47,2.89-0.71,4.33c-0.03,0.2,0.02,0.31,0.23,0.36C62.38,73.59,62.76,73.62,63.2,73.63z
		 M30.77,74.03c-0.59-0.44-1.04-0.93-1.48-1.44c-1.51-1.73-2.82-3.61-4.1-5.51c-1.55-2.3-2.98-4.67-4.4-7.05
		c-0.78-1.32-1.51-2.67-2.25-4.01c-0.24-0.44-0.55-0.79-0.96-1.07c-1.01-0.68-2.02-1.35-3.06-1.98c-0.79-0.49-1.63-0.88-2.51-1.17
		c-0.23-0.07-0.45-0.13-0.7-0.1c-1.21,0.16-2.06,0.81-2.55,1.92c-0.61,1.4-0.61,2.87-0.32,4.32c0.43,2.18,1.05,4.31,1.88,6.38
		c0.57,1.42,1.22,2.8,2.17,4c0.71,0.91,1.52,1.72,2.65,2.11c0.63,0.22,1.26,0.44,1.9,0.62c1.32,0.39,2.64,0.75,3.97,1.1
		c2.79,0.73,5.6,1.33,8.44,1.79C29.86,74.02,30.28,74.14,30.77,74.03z"/>
	<path class="st0" d="M49.38,78.25c0.18-0.49,0.17-0.94,0.23-1.38c0.25-1.98,0.37-3.97,0.58-5.95c0.1-0.99,0.25-1.98,0.39-2.96
		c0.05-0.34,0.19-0.6,0.46-0.83c0.51-0.43,0.9-0.99,1.27-1.54c0.55-0.82,1.11-1.63,1.49-2.55c0.05-0.12,0.12-0.21,0.25-0.23
		c0.19-0.03,0.33-0.14,0.45-0.28c0.13-0.15,0.19-0.09,0.24,0.05c0.13,0.39,0.02,0.75-0.15,1.09c-0.42,0.84-0.91,1.64-1.45,2.4
		c-0.46,0.65-0.93,1.3-1.51,1.85c-0.1,0.1-0.12,0.22-0.14,0.35c-0.33,2.19-0.45,4.4-0.7,6.6c-0.16,1.41-0.2,2.84-0.57,4.23
		c-0.04,0.14-0.08,0.29-0.13,0.43c-0.19,0.5-0.71,0.59-1.06,0.18c-0.2-0.23-0.34-0.49-0.44-0.78c-0.57-1.69-1.59-3.12-2.7-4.48
		c-2.03-2.49-4.35-4.69-6.75-6.81c-0.32-0.29-0.69-0.43-1.12-0.43c-0.57,0-1.14,0-1.7,0c-0.41,0-0.75-0.15-1.05-0.44
		c-0.27-0.26-0.49-0.55-0.68-0.87c-0.75-1.22-1.11-2.59-1.4-3.98c-0.03-0.16,0.08-0.19,0.18-0.21c0.21-0.05,0.43-0.08,0.64-0.12
		c0.17-0.03,0.13,0.1,0.15,0.19c0.22,1.06,0.47,2.12,0.96,3.1c0.21,0.42,0.45,0.82,0.79,1.15c0.15,0.15,0.32,0.22,0.53,0.22
		c0.61-0.01,1.21-0.07,1.82-0.01c0.51,0.05,0.97,0.23,1.36,0.56c2,1.73,3.93,3.53,5.7,5.5c1.13,1.25,2.18,2.57,3.07,4
		C48.76,76.91,49.08,77.53,49.38,78.25z"/>
	<path class="st0" d="M24.95,53.32c2.86,0.05,5.63,0.61,8.39,1.32c1.34,0.34,2.64,0.81,3.98,1.17c0.11,0.03,0.16,0.08,0.12,0.19
		c-0.01,0.02-0.01,0.04-0.01,0.06c-0.15,0.75-0.21,0.79-0.91,0.55c-2.31-0.78-4.66-1.42-7.07-1.85c-2.04-0.36-4.1-0.57-6.18-0.45
		c-0.24,0.01-0.34-0.04-0.3-0.29c0-0.01,0-0.02,0-0.03c-0.01-0.64-0.02-0.64,0.64-0.69C24.05,53.29,24.5,53.29,24.95,53.32z"/>
	<path class="st0" d="M62.15,53.25c0.02,0.19-0.08,0.21-0.22,0.22c-2.42,0.29-4.79,0.8-7.11,1.54c-1.58,0.5-3.14,1.09-4.56,1.97
		c-0.12,0.07-0.19,0.08-0.26-0.06c-0.04-0.09-0.11-0.17-0.16-0.25c-0.28-0.42-0.29-0.43,0.17-0.69c1.73-0.97,3.56-1.67,5.47-2.2
		c1.81-0.51,3.65-0.92,5.51-1.18c0.28-0.04,0.55-0.06,0.83-0.12c0.18-0.03,0.25,0.04,0.27,0.19C62.12,52.87,62.13,53.07,62.15,53.25
		z"/>
	<path class="st0" d="M76.97,55.97c0,0.09,0,0.18,0,0.27c0,0.12-0.03,0.18-0.17,0.18c-2.44,0.04-4.55,1.02-6.56,2.3
		c-0.03,0.02-0.06,0.03-0.07,0.05c-0.12,0.14-0.43,0.11-0.42,0.3c0,0.15,0.2,0.3,0.32,0.45c1.05,1.33,1.95,2.74,2.5,4.36
		c0.07,0.21,0.14,0.41,0.15,0.64c0,0.09,0.02,0.2-0.1,0.22c-0.25,0.04-0.49,0.07-0.74,0.09c-0.07,0.01-0.1-0.05-0.11-0.12
		c-0.17-1.08-0.75-1.99-1.27-2.91c-0.38-0.67-0.86-1.27-1.33-1.88c-0.18-0.23-0.31-0.24-0.53-0.07c-1.39,1.09-2.69,2.28-3.86,3.61
		c-0.26,0.3-0.27,0.3-0.58,0.08c-0.48-0.35-0.49-0.35-0.09-0.79c1.92-2.13,4.06-4,6.55-5.44c1.39-0.8,2.86-1.39,4.43-1.72
		c0.51-0.11,1.03-0.11,1.54-0.16c0.27-0.03,0.37,0.06,0.34,0.32c-0.01,0.07,0,0.14,0,0.21C76.96,55.97,76.96,55.97,76.97,55.97z"/>
	<path class="st0" d="M16.18,59.13c1.38-0.02,2.74,0.21,4.08,0.5c0.19,0.04,0.24,0.13,0.21,0.32c-0.1,0.64-0.14,0.67-0.77,0.57
		c-0.26-0.04-0.51-0.07-0.77-0.11c-0.23-0.03-0.29,0.04-0.24,0.28c0.23,1.15,0.48,2.3,0.78,3.43c0.22,0.85,0.43,1.7,0.7,2.53
		c0.06,0.19,0.03,0.26-0.17,0.32c-0.72,0.19-0.71,0.19-0.92-0.53c-0.54-1.9-1.03-3.8-1.38-5.75c-0.09-0.5-0.11-0.48-0.62-0.53
		c-1.02-0.09-2.03-0.01-3.04,0.12c-0.21,0.03-0.3-0.04-0.29-0.25c0-0.09-0.01-0.18-0.03-0.27c-0.08-0.39-0.08-0.4,0.32-0.47
		C14.76,59.15,15.47,59.15,16.18,59.13z"/>
</g>
</svg>
